# xmcd
#
# Track frame offsets: 
#        150
#        19601
#        34922
#        45455
#        58001
#        69974
#        92807
#        106815
#        122285
#        139925
#        154328
#
# Disc length: 2400 seconds
#
# Revision: 3
# Processed by: cddbd v1.5.1PL0 Copyright (c) Steve Scherf et al.
# Submitted via: ExactAudioCopy v0.95a5
#
DISCID=89095e0b
DTITLE=Willis Alan Ramsey - Willis Alan Ramsey
DYEAR=1900
DGENRE=Country
TTITLE0=Ballad of Spider John
TTITLE1=Muskrat Love (Muskrat Candlelight)
TTITLE2=Geraldine and the Honeybee
TTITLE3=Wishbone
TTITLE4=Satin Sheets
TTITLE5=Goodbye Old Missoula
TTITLE6=Painted Lady
TTITLE7=Watermelon Man
TTITLE8=Boy from Oklahoma
TTITLE9=Angel Eyes
TTITLE10=Northeast Texas Women
EXTD=Country
EXTT0=
EXTT1=
EXTT2=
EXTT3=
EXTT4=
EXTT5=
EXTT6=
EXTT7=
EXTT8=
EXTT9=
EXTT10=
PLAYORDER=
